<svg width="166" height="30" viewBox="0 0 166 30" fill="none" xmlns="http://www.w3.org/2000/svg">
<path opacity="0.5" d="M19.9492 15.2884C19.9492 20.0078 15.8769 23.9682 10.6828 23.9682C5.48866 23.9682 1.41638 20.0078 1.41638 15.2884C1.41638 10.569 5.48866 6.60867 10.6828 6.60867C15.8769 6.60867 19.9492 10.569 19.9492 15.2884Z" stroke="#7EB2FF" stroke-width="2.83276"/>
<path opacity="0.5" d="M34.3854 15.2884C34.3854 20.0078 30.3131 23.9682 25.119 23.9682C19.9249 23.9682 15.8526 20.0078 15.8526 15.2884C15.8526 10.569 19.9249 6.60867 25.119 6.60867C30.3131 6.60867 34.3854 10.569 34.3854 15.2884Z" stroke="#7EB2FF" stroke-width="2.83276"/>
<path d="M43.941 22.7047C43.2771 22.7047 42.6729 22.5454 42.1285 22.2267C41.5974 21.908 41.1393 21.4698 40.7542 20.9121C40.3824 20.3544 40.0969 19.7038 39.8977 18.9602C39.7118 18.2033 39.6321 17.3999 39.6587 16.5501C39.6852 15.7534 39.7848 14.8903 39.9575 13.9608C40.1434 13.0313 40.4023 12.1018 40.7343 11.1723C41.0662 10.2295 41.4646 9.32655 41.9293 8.46344C42.4074 7.58706 42.9518 6.8169 43.5626 6.15297C44.1734 5.48904 44.8506 4.9579 45.5942 4.55954C46.3378 4.1479 47.1545 3.94209 48.0441 3.94209C48.5885 3.94209 49.0467 4.05495 49.4185 4.28069C49.8035 4.49315 50.1089 4.77864 50.3347 5.13716C50.5737 5.49568 50.7397 5.90068 50.8326 6.35215C50.9256 6.80362 50.9654 7.26173 50.9521 7.72648C50.9256 8.16468 50.8592 8.58959 50.7529 9.00123C50.66 9.41286 50.5206 9.78466 50.3347 10.1166C50.1621 10.4353 49.943 10.6942 49.6774 10.8934C49.4251 11.0793 49.133 11.1723 48.801 11.1723C48.6417 11.159 48.4889 11.1059 48.3429 11.0129C48.2101 10.9333 48.0707 10.8138 47.9246 10.6544C47.7918 10.4951 47.6657 10.2627 47.5462 9.95728C47.9047 9.81122 48.1835 9.55893 48.3827 9.20041C48.5952 8.8286 48.7545 8.44353 48.8607 8.04517C48.9803 7.5937 49.0599 7.08911 49.0998 6.53141C49.1263 5.98699 49.0135 5.58863 48.7612 5.33634C48.5089 5.08404 48.2234 4.9579 47.9047 4.9579C47.2806 4.9579 46.6233 5.28322 45.9328 5.93387C45.2423 6.58452 44.5983 7.46755 44.0008 8.58295C43.4165 9.68507 42.9186 10.9731 42.5069 12.447C42.1086 13.9209 41.8762 15.4812 41.8098 17.1277C41.7833 17.8713 41.8297 18.5021 41.9492 19.0199C42.082 19.5378 42.2613 19.9627 42.487 20.2947C42.726 20.6266 42.9916 20.8656 43.2837 21.0117C43.5759 21.1578 43.868 21.2308 44.1601 21.2308C44.6249 21.2308 45.0631 21.1312 45.4747 20.932C45.8863 20.7329 46.2581 20.4872 46.5901 20.1951C46.9354 19.9029 47.2275 19.5975 47.4665 19.2789C47.7188 18.9734 47.9113 18.7012 48.0441 18.4622C48.1371 18.2896 48.2367 18.1834 48.3429 18.1435C48.4491 18.1037 48.5421 18.117 48.6217 18.1834C48.7014 18.2365 48.7545 18.3294 48.7811 18.4622C48.8076 18.5817 48.7811 18.7278 48.7014 18.9004C48.4757 19.3519 48.1968 19.8034 47.8649 20.2548C47.5462 20.7063 47.181 21.1113 46.7694 21.4698C46.371 21.8416 45.9328 22.1404 45.4548 22.3661C44.9768 22.5919 44.4722 22.7047 43.941 22.7047ZM56.7482 15.8331C56.6154 16.3376 56.4362 16.809 56.2104 17.2472C55.9847 17.6854 55.7125 18.0639 55.3938 18.3825C55.0884 18.7012 54.7365 18.9469 54.3382 19.1195C53.9531 19.3054 53.5282 19.3984 53.0634 19.3984C52.519 19.3984 52.0874 19.2789 51.7688 19.0398C51.4634 18.8141 51.231 18.5286 51.0716 18.1834C50.9256 17.8381 50.8393 17.4597 50.8127 17.048C50.7729 16.6364 50.7529 16.2513 50.7529 15.8928C50.7529 15.6405 50.7861 15.3617 50.8525 15.0563C50.9057 14.7509 50.9853 14.4388 51.0916 14.1201C51.1978 13.8014 51.3306 13.4827 51.4899 13.1641C51.6625 12.8454 51.8617 12.5532 52.0874 12.2877C52.1671 12.0619 52.2866 11.8628 52.446 11.6901C52.6186 11.5175 52.8111 11.3781 53.0236 11.2719C53.2493 11.1524 53.4883 11.066 53.7406 11.0129C53.9929 10.9465 54.2386 10.9133 54.4776 10.9133C54.5174 10.9133 54.5506 10.92 54.5772 10.9333C54.617 10.9465 54.6569 10.9598 54.6967 10.9731C54.8693 10.9864 55.0818 11.0528 55.3341 11.1723C55.5996 11.2918 55.8519 11.471 56.0909 11.7101C56.3432 11.9491 56.5557 12.2545 56.7283 12.6263C56.9009 12.9848 56.9872 13.423 56.9872 13.9409C56.9872 14.0471 56.9806 14.1799 56.9673 14.3392C56.954 14.4853 56.9408 14.6114 56.9275 14.7177C57.2329 14.5981 57.5516 14.4521 57.8835 14.2795C58.2155 14.1068 58.5342 13.9276 58.8396 13.7417C59.1583 13.5425 59.4504 13.3433 59.716 13.1441C59.9816 12.945 60.194 12.7657 60.3534 12.6064C60.4861 12.4869 60.599 12.4205 60.692 12.4072C60.7849 12.3939 60.8513 12.4205 60.8911 12.4869C60.931 12.5532 60.9376 12.6462 60.9111 12.7657C60.8845 12.8852 60.8115 13.018 60.692 13.1641C60.6256 13.2437 60.453 13.4031 60.1741 13.6421C59.9085 13.8811 59.5898 14.14 59.218 14.4189C58.8462 14.6977 58.4412 14.9699 58.0031 15.2355C57.5649 15.5011 57.1466 15.7003 56.7482 15.8331ZM53.3821 12.8055C53.3423 12.925 53.3224 13.0512 53.3224 13.184C53.3224 13.3964 53.3356 13.6222 53.3622 13.8612C53.3887 14.0869 53.4551 14.2927 53.5614 14.4786C53.6676 14.6645 53.8336 14.8239 54.0593 14.9567C54.2983 15.0762 54.6237 15.1359 55.0353 15.1359C55.1017 15.1359 55.1681 15.1359 55.2345 15.1359C55.3009 15.1227 55.3673 15.1094 55.4336 15.0961C55.4735 14.9235 55.5067 14.7708 55.5332 14.638C55.5731 14.4919 55.593 14.3658 55.593 14.2595C55.6195 14.0073 55.6195 13.7483 55.593 13.4827C55.5664 13.2172 55.5133 12.9782 55.4336 12.7657C55.3673 12.54 55.2743 12.3607 55.1548 12.2279C55.0486 12.0819 54.9158 12.0088 54.7564 12.0088C54.5041 12.0088 54.2585 12.0819 54.0195 12.2279C53.7937 12.3607 53.5813 12.5532 53.3821 12.8055ZM52.1074 16.3111C52.1074 16.5501 52.1206 16.7891 52.1472 17.0281C52.1738 17.2539 52.2269 17.4597 52.3065 17.6456C52.3862 17.8182 52.4924 17.9643 52.6252 18.0838C52.758 18.19 52.9306 18.2431 53.1431 18.2431C53.3821 18.2431 53.6012 18.19 53.8004 18.0838C53.9996 17.9643 54.1788 17.8182 54.3382 17.6456C54.4975 17.4597 54.6369 17.2539 54.7564 17.0281C54.8892 16.7891 55.0021 16.5435 55.095 16.2912C55.0021 16.3044 54.9091 16.3177 54.8162 16.331C54.7365 16.331 54.6436 16.331 54.5373 16.331C54.0328 16.331 53.5946 16.1849 53.2228 15.8928C52.8642 15.5874 52.5854 15.2023 52.3862 14.7376C52.3065 15.0164 52.2401 15.2886 52.187 15.5542C52.1339 15.8198 52.1074 16.0721 52.1074 16.3111ZM61.3493 19.3187C60.8447 19.3187 60.433 19.239 60.1143 19.0797C59.7957 18.9203 59.5434 18.7278 59.3575 18.5021C59.1848 18.263 59.0587 18.0107 58.979 17.7452C58.9126 17.4663 58.8794 17.214 58.8794 16.9883C58.8794 16.5899 58.9126 16.1717 58.979 15.7335C59.0454 15.282 59.1251 14.8704 59.218 14.4986C59.311 14.1135 59.3907 13.7882 59.4571 13.5226C59.5367 13.257 59.5898 13.091 59.6164 13.0246C59.7359 12.6396 59.8886 12.3076 60.0745 12.0287C60.2737 11.7366 60.5459 11.5374 60.8911 11.4312C61.0239 11.4047 61.1634 11.3781 61.3094 11.3515C61.4289 11.3383 61.5484 11.3316 61.6679 11.3316C61.8007 11.3316 61.9202 11.3515 62.0265 11.3914C61.6679 12.3076 61.3825 13.0711 61.17 13.6819C60.9708 14.2927 60.8181 14.7907 60.7119 15.1758C60.5924 15.614 60.5193 15.9658 60.4928 16.2314C60.4264 16.829 60.4795 17.2804 60.6521 17.5858C60.8248 17.8912 61.1766 18.0439 61.7078 18.0439C62.053 18.0439 62.385 17.9178 62.7037 17.6655C63.0224 17.3999 63.3145 17.0613 63.5801 16.6497C63.5402 16.4372 63.5203 16.2181 63.5203 15.9924C63.5203 15.5675 63.5535 15.1559 63.6199 14.7575C63.6996 14.3459 63.7859 13.9674 63.8788 13.6222C63.9851 13.2637 64.0913 12.945 64.1975 12.6661C64.317 12.3873 64.4166 12.1682 64.4963 12.0088C64.6423 11.6901 64.7751 11.4976 64.8946 11.4312C65.0141 11.3515 65.2067 11.3051 65.4723 11.2918C65.5785 11.2785 65.6648 11.2785 65.7312 11.2918C65.8109 11.2918 65.8773 11.2984 65.9304 11.3117C66.0897 11.3515 66.1694 11.4312 66.1694 11.5507C66.1694 11.7632 66.1561 12.0819 66.1295 12.5068C66.103 12.9317 66.0233 13.3699 65.8905 13.8214C65.7976 14.1932 65.7046 14.5118 65.6117 14.7774C65.532 15.0297 65.4523 15.2488 65.3727 15.4347C65.293 15.6073 65.2133 15.7534 65.1337 15.8729C65.054 15.9791 64.9809 16.0787 64.9146 16.1717C64.9411 16.57 64.9743 16.8887 65.0141 17.1277C65.054 17.3667 65.1005 17.5526 65.1536 17.6854C65.22 17.8049 65.293 17.8912 65.3727 17.9444C65.4656 17.9842 65.5652 18.0041 65.6714 18.0041C65.8573 18.0041 66.0764 17.9178 66.3287 17.7452C66.581 17.5593 66.84 17.3335 67.1055 17.068C67.3844 16.7891 67.6566 16.4903 67.9222 16.1717C68.201 15.8397 68.4533 15.5277 68.679 15.2355C68.9048 14.9434 69.0973 14.6911 69.2567 14.4786C69.416 14.2529 69.5156 14.1135 69.5554 14.0604C69.6484 13.9409 69.7347 13.8678 69.8144 13.8413C69.9073 13.8147 69.9803 13.828 70.0335 13.8811C70.0866 13.9209 70.1131 13.994 70.1131 14.1002C70.1264 14.1932 70.0998 14.2994 70.0335 14.4189C69.7679 14.9235 69.4359 15.4613 69.0376 16.0322C68.6525 16.5899 68.2342 17.1078 67.7827 17.5858C67.3445 18.0639 66.8997 18.4622 66.4482 18.7809C65.9968 19.0996 65.5718 19.2589 65.1735 19.2589C64.815 19.2589 64.5295 19.1394 64.317 18.9004C64.1178 18.6481 63.9452 18.2896 63.7992 17.8248C63.4937 18.3029 63.1352 18.6747 62.7236 18.9402C62.312 19.1925 61.8538 19.3187 61.3493 19.3187ZM67.0059 27.5049C66.913 27.4651 66.82 27.4053 66.7271 27.3257C66.6474 27.2593 66.5677 27.173 66.4881 27.0667C66.4084 26.9738 66.342 26.8543 66.2889 26.7082C66.6607 25.2874 66.9794 24.0525 67.2449 23.0035C67.4972 21.9545 67.7163 21.0781 67.9022 20.3743C68.1014 19.5511 68.274 18.8606 68.4201 18.3029C68.5529 17.7717 68.6857 17.2406 68.8185 16.7094C68.9247 16.2447 69.0376 15.7467 69.1571 15.2156C69.2899 14.6845 69.4094 14.1865 69.5156 13.7218C69.6484 13.2039 69.728 12.7923 69.7546 12.4869C69.7812 12.1682 69.6816 11.896 69.4558 11.6702C69.6152 11.5374 69.7745 11.4378 69.9339 11.3715C70.1065 11.2918 70.2592 11.2387 70.392 11.2121C70.538 11.1723 70.6841 11.159 70.8302 11.1723C71.1887 11.1988 71.4078 11.3117 71.4875 11.5109C71.5804 11.7101 71.5937 12.0287 71.5273 12.4669C71.514 12.5333 71.5007 12.5931 71.4875 12.6462C71.4875 12.686 71.4875 12.7325 71.4875 12.7856C71.6734 12.5732 71.8792 12.3673 72.1049 12.1682C72.3306 11.969 72.5564 11.7897 72.7821 11.6304C73.0211 11.471 73.2601 11.3449 73.4992 11.2519C73.7515 11.1457 73.9905 11.0926 74.2162 11.0926C74.5216 11.0926 74.7673 11.1723 74.9532 11.3316C75.1523 11.4777 75.305 11.6769 75.4113 11.9292C75.5175 12.1814 75.5839 12.4669 75.6105 12.7856C75.637 13.091 75.6437 13.3964 75.6304 13.7018C75.6171 14.0338 75.5573 14.3857 75.4511 14.7575C75.3582 15.1293 75.2254 15.5077 75.0528 15.8928C74.8801 16.2779 74.681 16.6563 74.4552 17.0281C74.2295 17.3999 73.9905 17.7452 73.7382 18.0639C73.7913 18.0771 73.8245 18.0904 73.8378 18.1037C73.851 18.1037 73.8577 18.1103 73.8577 18.1236C73.8577 18.1236 73.8643 18.1303 73.8776 18.1435C73.9042 18.1435 73.9506 18.1435 74.017 18.1435C74.3224 18.1435 74.6345 18.0639 74.9532 17.9045C75.2719 17.7452 75.5839 17.546 75.8893 17.307C76.1947 17.0547 76.4868 16.7825 76.7657 16.4903C77.0578 16.1982 77.3168 15.9194 77.5425 15.6538C77.7815 15.3749 77.9807 15.1293 78.14 14.9168C78.2994 14.6911 78.4189 14.5318 78.4985 14.4388C78.6048 14.306 78.7044 14.2197 78.7973 14.1799C78.8903 14.1268 78.9633 14.1201 79.0164 14.16C79.0695 14.1998 79.0961 14.2795 79.0961 14.399C79.0961 14.5052 79.0562 14.6446 78.9766 14.8172C78.9235 14.9368 78.8106 15.1293 78.638 15.3949C78.4654 15.6604 78.2529 15.9592 78.0006 16.2912C77.7483 16.6231 77.4562 16.9684 77.1242 17.3269C76.8055 17.6854 76.4669 18.0107 76.1084 18.3029C75.7499 18.595 75.3781 18.834 74.993 19.0199C74.6212 19.2191 74.256 19.3187 73.8975 19.3187C73.7249 19.3187 73.5855 19.312 73.4792 19.2988C73.373 19.2855 73.2801 19.2589 73.2004 19.2191C73.134 19.1925 73.0676 19.1593 73.0012 19.1195C72.9348 19.093 72.8552 19.0598 72.7622 19.0199C72.5232 19.2058 72.2775 19.3452 72.0252 19.4382C71.7729 19.5444 71.5273 19.5975 71.2883 19.5975C71.0625 19.5975 70.8634 19.5577 70.6907 19.478C70.5314 19.4116 70.3986 19.312 70.2924 19.1793C70.1862 19.0598 70.0998 18.927 70.0335 18.7809C69.9671 18.6216 69.9139 18.4689 69.8741 18.3228C69.8608 18.3759 69.8476 18.4224 69.8343 18.4622C69.8343 18.5021 69.8276 18.5552 69.8144 18.6216C69.655 19.2589 69.489 19.9959 69.3164 20.8324C69.1703 21.5495 68.9911 22.4192 68.7786 23.4417C68.5794 24.4774 68.367 25.6526 68.1413 26.9672C68.0616 27.3257 67.9222 27.5315 67.723 27.5846C67.5105 27.6377 67.2715 27.6112 67.0059 27.5049ZM70.6509 15.1559C70.5845 15.3816 70.5115 15.6472 70.4318 15.9526C70.3654 16.2447 70.2857 16.5966 70.1928 17.0082C70.299 16.9285 70.4185 16.8688 70.5513 16.829C70.6841 16.7891 70.8169 16.7692 70.9497 16.7692C71.0957 16.7692 71.2816 16.8489 71.5074 17.0082C71.7331 17.1543 72.0053 17.3136 72.324 17.4862C72.5232 17.2472 72.729 16.9817 72.9415 16.6895C73.1672 16.3841 73.3664 16.0721 73.539 15.7534C73.7249 15.4347 73.8776 15.1094 73.9971 14.7774C74.1299 14.4454 74.2029 14.1268 74.2162 13.8214C74.2428 13.423 74.1963 13.1109 74.0768 12.8852C73.9573 12.6595 73.7581 12.5466 73.4792 12.5466C73.0676 12.5466 72.6161 12.7923 72.1248 13.2836C71.6468 13.7616 71.1555 14.3857 70.6509 15.1559ZM77.3433 18.6813C77.9276 16.2248 78.3923 14.2529 78.7376 12.7657C79.0961 11.2785 79.3683 10.1432 79.5542 9.35975C79.7667 8.43025 79.9127 7.78624 79.9924 7.42771C80.0322 7.17542 80.0654 6.92977 80.092 6.69075C80.1185 6.4783 80.1318 6.2592 80.1318 6.03346C80.1318 5.80773 80.1119 5.60191 80.0721 5.41601C80.1783 5.34962 80.2912 5.2965 80.4107 5.25667C80.5435 5.21683 80.6696 5.18363 80.7891 5.15708C80.9352 5.11724 81.0812 5.08404 81.2273 5.05749C81.3734 5.03093 81.5062 5.01765 81.6257 5.01765C81.7319 5.01765 81.8315 5.03093 81.9244 5.05749C82.0174 5.07077 82.0771 5.1106 82.1037 5.17699C82.1834 5.24339 82.2166 5.37617 82.2033 5.57535C82.2033 5.77453 82.19 5.98035 82.1634 6.19281C82.1103 6.4451 82.0506 6.71731 81.9842 7.00944C81.8248 7.58042 81.6057 8.40369 81.3269 9.47926C81.0879 10.3955 80.7625 11.6437 80.3509 13.2238C79.9526 14.804 79.448 16.7958 78.8372 19.1992C78.7708 19.2656 78.6911 19.312 78.5981 19.3386C78.5052 19.3652 78.4189 19.3784 78.3392 19.3784C78.2463 19.3784 78.1467 19.3718 78.0404 19.3585C77.9475 19.332 77.8545 19.2921 77.7616 19.239C77.6819 19.1859 77.6022 19.1129 77.5226 19.0199C77.4429 18.9402 77.3831 18.8274 77.3433 18.6813ZM91.1265 14.8571C90.7281 15.4413 90.2767 16.0123 89.7721 16.57C89.2675 17.1144 88.7297 17.6057 88.1587 18.0439C87.601 18.4689 87.0234 18.8141 86.4259 19.0797C85.8416 19.3452 85.2706 19.478 84.7129 19.478C84.4208 19.478 84.1021 19.405 83.7569 19.2589C83.4249 19.1261 83.1195 18.9137 82.8406 18.6216C82.5618 18.3294 82.3361 17.951 82.1634 17.4862C82.0041 17.0215 81.9576 16.4572 82.024 15.7932C82.0771 15.2488 82.2431 14.6778 82.522 14.0803C82.8141 13.4695 83.166 12.9118 83.5776 12.4072C84.0025 11.9026 84.4739 11.4843 84.9918 11.1524C85.5229 10.8204 86.0541 10.6544 86.5852 10.6544C87.0898 10.6544 87.455 10.7806 87.6807 11.0328C87.9064 11.2851 88.006 11.5972 87.9795 11.969C87.9396 12.3806 87.8201 12.7591 87.6209 13.1043C87.435 13.4496 87.2093 13.7616 86.9437 14.0404C86.6782 14.3193 86.3927 14.5716 86.0873 14.7973C85.7951 15.0231 85.5163 15.2289 85.2507 15.4148C84.9586 15.614 84.6797 15.8065 84.4142 15.9924C84.1486 16.165 83.9162 16.3244 83.717 16.4704C83.7303 16.8024 83.7901 17.0812 83.8963 17.307C84.0025 17.5327 84.1353 17.7186 84.2946 17.8647C84.454 17.9975 84.6333 18.0971 84.8324 18.1634C85.0449 18.2166 85.2573 18.2431 85.4698 18.2431C85.9213 18.2431 86.3927 18.1037 86.884 17.8248C87.3753 17.5327 87.8533 17.1875 88.3181 16.7891C88.7961 16.3775 89.2343 15.9526 89.6326 15.5144C90.0443 15.0762 90.3829 14.6977 90.6485 14.3791C90.7414 14.2728 90.8344 14.2131 90.9273 14.1998C91.0335 14.1732 91.1132 14.1865 91.1663 14.2396C91.2327 14.2795 91.2659 14.3591 91.2659 14.4786C91.2659 14.5849 91.2194 14.711 91.1265 14.8571ZM86.0275 11.7897C85.8682 11.7897 85.6756 11.8694 85.4499 12.0287C85.2374 12.1881 85.025 12.4205 84.8125 12.7259C84.6001 13.018 84.4009 13.3832 84.215 13.8214C84.0291 14.2463 83.8897 14.7376 83.7967 15.2953C83.956 15.1758 84.1287 15.0563 84.3146 14.9368C84.5005 14.804 84.6864 14.6645 84.8723 14.5185C85.4432 14.0803 85.8416 13.6952 86.0673 13.3632C86.2931 13.0313 86.4192 12.7458 86.4458 12.5068C86.4723 12.2545 86.4458 12.0752 86.3661 11.969C86.2864 11.8495 86.1736 11.7897 86.0275 11.7897Z" fill="#C7CCD6"/>
<path d="M100.765 22.7047C100.14 22.7047 99.5562 22.6051 99.0118 22.406C98.4806 22.2068 98.0092 21.9279 97.5976 21.5694C97.1992 21.2109 96.8806 20.786 96.6415 20.2947C96.4025 19.8166 96.2764 19.2921 96.2631 18.7211C96.2498 17.9775 96.3693 17.3136 96.6216 16.7294C96.8606 16.1451 97.1793 15.6272 97.5777 15.1758C97.9893 14.7243 98.4541 14.3459 98.9719 14.0404C99.4898 13.7218 100.021 13.4628 100.565 13.2637C100.273 13.1043 99.9944 12.9118 99.7288 12.686C99.4765 12.4603 99.2508 12.208 99.0516 11.9292C98.8524 11.6503 98.6931 11.3582 98.5736 11.0528C98.4541 10.7474 98.3943 10.442 98.3943 10.1365C98.3678 9.20704 98.5537 8.36385 98.952 7.60698C99.3636 6.8501 99.8882 6.20608 100.526 5.67494C101.163 5.13052 101.873 4.71224 102.657 4.42012C103.453 4.12799 104.23 3.98192 104.987 3.98192C105.492 3.98192 105.923 4.06823 106.282 4.24085C106.64 4.4002 106.932 4.60602 107.158 4.85831C107.384 5.09732 107.55 5.36289 107.656 5.65502C107.776 5.93387 107.842 6.19281 107.855 6.43182C107.869 6.87001 107.809 7.31485 107.676 7.76632C107.557 8.21779 107.397 8.62943 107.198 9.00123C107.012 9.35975 106.8 9.65852 106.561 9.89753C106.322 10.1233 106.089 10.2361 105.864 10.2361C105.691 10.2361 105.512 10.2096 105.326 10.1565C105.166 10.1166 104.98 10.0502 104.768 9.95728C104.556 9.86433 104.343 9.72491 104.131 9.53901C104.476 9.40622 104.781 9.22032 105.047 8.98131C105.312 8.72902 105.532 8.45017 105.704 8.14476C105.89 7.83935 106.023 7.5273 106.103 7.20862C106.195 6.87665 106.242 6.56461 106.242 6.27248C106.229 5.84756 106.129 5.52224 105.943 5.2965C105.757 5.05749 105.459 4.93798 105.047 4.93798C104.489 4.93798 103.931 5.07741 103.374 5.35626C102.816 5.62183 102.318 6.00027 101.88 6.49157C101.455 6.9696 101.116 7.54722 100.864 8.22443C100.625 8.88836 100.545 9.61204 100.625 10.3955C100.692 10.993 100.871 11.4976 101.163 11.9092C101.468 12.3209 101.754 12.6396 102.019 12.8653C102.232 12.8387 102.431 12.8188 102.617 12.8055C102.803 12.779 102.975 12.7657 103.135 12.7657C103.361 12.7657 103.586 12.8055 103.812 12.8852C104.038 12.9649 104.151 13.0778 104.151 13.2238C104.151 13.33 104.124 13.4496 104.071 13.5823C104.031 13.7151 103.958 13.8413 103.852 13.9608C103.746 14.0803 103.619 14.1799 103.473 14.2595C103.327 14.3392 103.155 14.3791 102.956 14.3791C102.796 14.3791 102.604 14.3392 102.378 14.2595C102.152 14.1799 101.926 14.0803 101.701 13.9608C101.196 14.067 100.738 14.2595 100.326 14.5384C99.9147 14.804 99.5628 15.1227 99.2707 15.4945C98.9918 15.8663 98.7728 16.2713 98.6134 16.7094C98.4541 17.1476 98.381 17.5726 98.3943 17.9842C98.4076 18.3693 98.4673 18.7543 98.5736 19.1394C98.6798 19.5378 98.8458 19.8897 99.0715 20.1951C99.2973 20.5005 99.5894 20.7461 99.9479 20.932C100.32 21.1312 100.765 21.2308 101.282 21.2308C101.667 21.2308 102.033 21.1445 102.378 20.9719C102.736 20.8125 103.068 20.6067 103.374 20.3544C103.679 20.1021 103.958 19.8233 104.21 19.5179C104.463 19.2125 104.682 18.9137 104.868 18.6216C105.054 18.3294 105.206 18.0639 105.326 17.8248C105.459 17.5858 105.551 17.4132 105.605 17.307C105.644 17.2273 105.698 17.1676 105.764 17.1277C105.844 17.0879 105.917 17.0812 105.983 17.1078C106.063 17.1211 106.122 17.1676 106.162 17.2472C106.202 17.3269 106.202 17.4464 106.162 17.6057C106.056 18.0838 105.857 18.6149 105.565 19.1992C105.273 19.7967 104.894 20.3544 104.429 20.8723C103.978 21.3901 103.44 21.8217 102.816 22.1669C102.205 22.5255 101.521 22.7047 100.765 22.7047ZM116.261 16.3708C115.703 17.0746 115.205 17.6323 114.767 18.0439C114.342 18.4423 113.963 18.7411 113.631 18.9402C113.3 19.1394 113.007 19.2656 112.755 19.3187C112.503 19.3718 112.277 19.3984 112.078 19.3984C111.826 19.3984 111.613 19.3386 111.441 19.2191C111.268 19.0996 111.122 18.9535 111.002 18.7809C110.883 18.6083 110.79 18.429 110.723 18.2431C110.657 18.0572 110.604 17.8979 110.564 17.7651C110.511 17.619 110.451 17.453 110.385 17.2671C110.332 17.0812 110.272 16.8754 110.206 16.6497C109.94 16.9285 109.661 17.2273 109.369 17.546C109.117 17.8116 108.831 18.117 108.513 18.4622C108.194 18.7942 107.869 19.1328 107.537 19.478C107.417 19.5046 107.311 19.5046 107.218 19.478C107.125 19.4515 107.045 19.4249 106.979 19.3984C106.899 19.3585 106.833 19.312 106.78 19.2589C106.74 19.2191 106.7 19.1726 106.66 19.1195C106.634 19.0797 106.607 19.0332 106.581 18.9801C106.541 18.9137 106.527 18.8473 106.541 18.7809C106.926 18.3427 107.304 17.9112 107.676 17.4862C108.061 17.048 108.406 16.6563 108.712 16.3111C109.057 15.9127 109.389 15.5277 109.708 15.1559C109.522 14.6513 109.356 14.1799 109.21 13.7417C109.064 13.3035 108.957 12.9914 108.891 12.8055C108.758 12.4205 108.639 12.1018 108.533 11.8495C108.44 11.5972 108.274 11.4179 108.035 11.3117C108.194 11.1656 108.347 11.0528 108.493 10.9731C108.652 10.8801 108.791 10.8138 108.911 10.7739C109.057 10.7208 109.183 10.6942 109.289 10.6942C109.595 10.6942 109.86 10.9665 110.086 11.5109C110.325 12.042 110.564 12.779 110.803 13.7218C110.803 13.7616 110.816 13.8081 110.843 13.8612C111.122 13.5292 111.387 13.2172 111.64 12.925C111.905 12.6329 112.131 12.374 112.317 12.1483C112.516 11.9225 112.675 11.7433 112.795 11.6105C112.914 11.4777 112.987 11.398 113.014 11.3715C113.28 11.066 113.519 10.8934 113.731 10.8536C113.944 10.8138 114.136 10.8602 114.309 10.993C114.388 11.0461 114.475 11.0992 114.568 11.1524C114.74 11.2586 114.946 11.3582 115.185 11.4511C114.959 11.6636 114.707 11.9092 114.428 12.1881C114.163 12.4537 113.91 12.7126 113.671 12.9649C113.392 13.257 113.114 13.5491 112.835 13.8413C112.636 14.0404 112.397 14.2861 112.118 14.5782C111.852 14.8704 111.567 15.189 111.261 15.5343C111.354 15.8663 111.454 16.1783 111.56 16.4704C111.666 16.7626 111.772 17.0215 111.879 17.2472C111.998 17.473 112.118 17.6522 112.237 17.785C112.357 17.9178 112.483 17.9842 112.616 17.9842C112.828 17.9842 113.067 17.9311 113.333 17.8248C113.598 17.7053 113.877 17.546 114.169 17.3468C114.461 17.1476 114.754 16.9153 115.046 16.6497C115.351 16.3841 115.65 16.1053 115.942 15.8131C116.048 15.7069 116.148 15.6472 116.241 15.6339C116.347 15.6206 116.42 15.6405 116.46 15.6936C116.5 15.7467 116.506 15.8331 116.48 15.9526C116.466 16.0721 116.393 16.2115 116.261 16.3708ZM114.269 27.5049C114.176 27.4651 114.083 27.4053 113.99 27.3257C113.91 27.2593 113.831 27.173 113.751 27.0667C113.671 26.9738 113.605 26.8543 113.552 26.7082C113.924 25.2874 114.242 24.0525 114.508 23.0035C114.76 21.9545 114.979 21.0781 115.165 20.3743C115.364 19.5511 115.537 18.8606 115.683 18.3029C115.816 17.7717 115.949 17.2406 116.081 16.7094C116.188 16.2447 116.3 15.7467 116.42 15.2156C116.553 14.6845 116.672 14.1865 116.779 13.7218C116.911 13.2039 116.991 12.7923 117.018 12.4869C117.044 12.1682 116.944 11.896 116.719 11.6702C116.878 11.5374 117.037 11.4378 117.197 11.3715C117.369 11.2918 117.522 11.2387 117.655 11.2121C117.801 11.1723 117.947 11.159 118.093 11.1723C118.452 11.1988 118.671 11.3117 118.75 11.5109C118.843 11.7101 118.857 12.0287 118.79 12.4669C118.777 12.5333 118.764 12.5931 118.75 12.6462C118.75 12.686 118.75 12.7325 118.75 12.7856C118.936 12.5732 119.142 12.3673 119.368 12.1682C119.594 11.969 119.819 11.7897 120.045 11.6304C120.284 11.471 120.523 11.3449 120.762 11.2519C121.014 11.1457 121.253 11.0926 121.479 11.0926C121.785 11.0926 122.03 11.1723 122.216 11.3316C122.415 11.4777 122.568 11.6769 122.674 11.9292C122.78 12.1814 122.847 12.4669 122.873 12.7856C122.9 13.091 122.907 13.3964 122.893 13.7018C122.88 14.0338 122.82 14.3857 122.714 14.7575C122.621 15.1293 122.488 15.5077 122.316 15.8928C122.143 16.2779 121.944 16.6563 121.718 17.0281C121.492 17.3999 121.253 17.7452 121.001 18.0639C121.054 18.0771 121.087 18.0904 121.101 18.1037C121.114 18.1037 121.121 18.1103 121.121 18.1236C121.121 18.1236 121.127 18.1303 121.141 18.1435C121.167 18.1435 121.214 18.1435 121.28 18.1435C121.585 18.1435 121.897 18.0639 122.216 17.9045C122.535 17.7452 122.847 17.546 123.152 17.307C123.458 17.0547 123.75 16.7825 124.029 16.4903C124.321 16.1982 124.58 15.9194 124.805 15.6538C125.044 15.3749 125.244 15.1293 125.403 14.9168C125.562 14.6911 125.682 14.5318 125.761 14.4388C125.868 14.306 125.967 14.2197 126.06 14.1799C126.153 14.1268 126.226 14.1201 126.279 14.16C126.332 14.1998 126.359 14.2795 126.359 14.399C126.359 14.5052 126.319 14.6446 126.24 14.8172C126.186 14.9368 126.074 15.1293 125.901 15.3949C125.728 15.6604 125.516 15.9592 125.264 16.2912C125.011 16.6231 124.719 16.9684 124.387 17.3269C124.068 17.6854 123.73 18.0107 123.371 18.3029C123.013 18.595 122.641 18.834 122.256 19.0199C121.884 19.2191 121.519 19.3187 121.16 19.3187C120.988 19.3187 120.848 19.312 120.742 19.2988C120.636 19.2855 120.543 19.2589 120.463 19.2191C120.397 19.1925 120.331 19.1593 120.264 19.1195C120.198 19.093 120.118 19.0598 120.025 19.0199C119.786 19.2058 119.54 19.3452 119.288 19.4382C119.036 19.5444 118.79 19.5975 118.551 19.5975C118.325 19.5975 118.126 19.5577 117.954 19.478C117.794 19.4116 117.662 19.312 117.555 19.1793C117.449 19.0598 117.363 18.927 117.296 18.7809C117.23 18.6216 117.177 18.4689 117.137 18.3228C117.124 18.3759 117.11 18.4224 117.097 18.4622C117.097 18.5021 117.091 18.5552 117.077 18.6216C116.918 19.2589 116.752 19.9959 116.579 20.8324C116.433 21.5495 116.254 22.4192 116.042 23.4417C115.842 24.4774 115.63 25.6526 115.404 26.9672C115.325 27.3257 115.185 27.5315 114.986 27.5846C114.773 27.6377 114.534 27.6112 114.269 27.5049ZM117.914 15.1559C117.847 15.3816 117.774 15.6472 117.695 15.9526C117.628 16.2447 117.549 16.5966 117.456 17.0082C117.562 16.9285 117.681 16.8688 117.814 16.829C117.947 16.7891 118.08 16.7692 118.213 16.7692C118.359 16.7692 118.545 16.8489 118.77 17.0082C118.996 17.1543 119.268 17.3136 119.587 17.4862C119.786 17.2472 119.992 16.9817 120.204 16.6895C120.43 16.3841 120.629 16.0721 120.802 15.7534C120.988 15.4347 121.141 15.1094 121.26 14.7774C121.393 14.4454 121.466 14.1268 121.479 13.8214C121.506 13.423 121.459 13.1109 121.34 12.8852C121.22 12.6595 121.021 12.5466 120.742 12.5466C120.331 12.5466 119.879 12.7923 119.388 13.2836C118.91 13.7616 118.418 14.3857 117.914 15.1559ZM133.928 14.8571C133.529 15.4413 133.078 16.0123 132.573 16.57C132.069 17.1144 131.531 17.6057 130.96 18.0439C130.402 18.4689 129.825 18.8141 129.227 19.0797C128.643 19.3452 128.072 19.478 127.514 19.478C127.222 19.478 126.903 19.405 126.558 19.2589C126.226 19.1261 125.921 18.9137 125.642 18.6216C125.363 18.3294 125.137 17.951 124.965 17.4862C124.805 17.0215 124.759 16.4572 124.825 15.7932C124.878 15.2488 125.044 14.6778 125.323 14.0803C125.615 13.4695 125.967 12.9118 126.379 12.4072C126.804 11.9026 127.275 11.4843 127.793 11.1524C128.324 10.8204 128.855 10.6544 129.387 10.6544C129.891 10.6544 130.256 10.7806 130.482 11.0328C130.708 11.2851 130.807 11.5972 130.781 11.969C130.741 12.3806 130.621 12.7591 130.422 13.1043C130.236 13.4496 130.011 13.7616 129.745 14.0404C129.479 14.3193 129.194 14.5716 128.889 14.7973C128.596 15.0231 128.318 15.2289 128.052 15.4148C127.76 15.614 127.481 15.8065 127.215 15.9924C126.95 16.165 126.718 16.3244 126.518 16.4704C126.532 16.8024 126.591 17.0812 126.698 17.307C126.804 17.5327 126.937 17.7186 127.096 17.8647C127.255 17.9975 127.435 18.0971 127.634 18.1634C127.846 18.2166 128.059 18.2431 128.271 18.2431C128.723 18.2431 129.194 18.1037 129.685 17.8248C130.177 17.5327 130.655 17.1875 131.119 16.7891C131.597 16.3775 132.036 15.9526 132.434 15.5144C132.846 15.0762 133.184 14.6977 133.45 14.3791C133.543 14.2728 133.636 14.2131 133.729 14.1998C133.835 14.1732 133.915 14.1865 133.968 14.2396C134.034 14.2795 134.067 14.3591 134.067 14.4786C134.067 14.5849 134.021 14.711 133.928 14.8571ZM128.829 11.7897C128.669 11.7897 128.477 11.8694 128.251 12.0287C128.039 12.1881 127.826 12.4205 127.614 12.7259C127.401 13.018 127.202 13.3832 127.016 13.8214C126.83 14.2463 126.691 14.7376 126.598 15.2953C126.757 15.1758 126.93 15.0563 127.116 14.9368C127.302 14.804 127.488 14.6645 127.674 14.5185C128.245 14.0803 128.643 13.6952 128.869 13.3632C129.094 13.0313 129.221 12.7458 129.247 12.5068C129.274 12.2545 129.247 12.0752 129.167 11.969C129.088 11.8495 128.975 11.7897 128.829 11.7897ZM138.409 19.4979C138.104 19.4979 137.838 19.4382 137.613 19.3187C137.4 19.2125 137.228 19.0664 137.095 18.8805C136.962 18.6946 136.876 18.4821 136.836 18.2431C136.796 17.9908 136.809 17.7253 136.876 17.4464C136.915 17.2605 136.982 17.0149 137.075 16.7094C137.168 16.3908 137.261 16.0522 137.354 15.6936C137.46 15.3218 137.553 14.9567 137.633 14.5981C137.725 14.2263 137.785 13.8944 137.812 13.6023C137.838 13.2968 137.825 13.0512 137.772 12.8653C137.719 12.6661 137.606 12.5665 137.433 12.5665C137.221 12.5665 137.002 12.6396 136.776 12.7856C136.55 12.9184 136.318 13.1043 136.079 13.3433C135.853 13.5823 135.621 13.8612 135.382 14.1799C135.156 14.4853 134.93 14.804 134.705 15.1359C134.585 15.5874 134.486 15.9858 134.406 16.331C134.326 16.663 134.253 16.9684 134.187 17.2472C134.134 17.5128 134.081 17.7518 134.027 17.9643C133.974 18.1634 133.928 18.356 133.888 18.5419C133.848 18.6747 133.729 18.8075 133.529 18.9402C133.33 19.0598 133.118 19.1593 132.892 19.239C132.666 19.3187 132.474 19.3585 132.314 19.3585C132.142 19.3585 132.069 19.2988 132.095 19.1793C132.109 19.0996 132.155 18.9203 132.235 18.6415C132.301 18.3626 132.387 18.0373 132.494 17.6655C132.587 17.2804 132.686 16.8754 132.792 16.4505C132.899 16.0256 132.998 15.6206 133.091 15.2355C133.158 14.9301 133.231 14.5915 133.31 14.2197C133.377 13.901 133.456 13.5292 133.549 13.1043C133.656 12.6794 133.775 12.2146 133.908 11.7101C134.001 11.6304 134.094 11.5706 134.187 11.5308C134.293 11.4777 134.399 11.4378 134.505 11.4113C134.612 11.3715 134.725 11.3449 134.844 11.3316C134.95 11.3316 135.056 11.3383 135.163 11.3515C135.256 11.3648 135.349 11.3914 135.442 11.4312C135.548 11.4578 135.641 11.5042 135.72 11.5706C135.681 11.6636 135.634 11.7964 135.581 11.969C135.528 12.1283 135.475 12.301 135.422 12.4869C135.369 12.6993 135.302 12.9184 135.222 13.1441C135.395 12.9051 135.588 12.6661 135.8 12.4271C136.026 12.1748 136.265 11.9491 136.517 11.7499C136.783 11.5507 137.062 11.3914 137.354 11.2719C137.646 11.1391 137.945 11.0727 138.25 11.0727C138.502 11.0727 138.728 11.1457 138.927 11.2918C139.126 11.4378 139.279 11.6437 139.385 11.9092C139.505 12.1615 139.571 12.4669 139.584 12.8255C139.611 13.184 139.565 13.5757 139.445 14.0006L139.226 14.877C139.16 15.1559 139.073 15.4878 138.967 15.8729C138.874 16.2447 138.755 16.6563 138.609 17.1078C138.529 17.3999 138.496 17.6522 138.509 17.8647C138.535 18.0771 138.668 18.1834 138.907 18.1834C139.146 18.1834 139.445 18.0373 139.804 17.7452C140.175 17.453 140.547 17.1012 140.919 16.6895C141.291 16.2779 141.643 15.8596 141.975 15.4347C142.307 14.9965 142.559 14.6446 142.732 14.3791C142.851 14.2064 142.964 14.0936 143.07 14.0404C143.176 13.9873 143.256 13.9807 143.309 14.0205C143.376 14.0604 143.409 14.1533 143.409 14.2994C143.409 14.4322 143.356 14.6048 143.249 14.8172C143.156 15.0031 143.01 15.2488 142.811 15.5542C142.625 15.8596 142.4 16.1849 142.134 16.5302C141.868 16.8754 141.583 17.2273 141.278 17.5858C140.972 17.9311 140.653 18.2498 140.321 18.5419C139.989 18.8207 139.658 19.0465 139.326 19.2191C139.007 19.405 138.701 19.4979 138.409 19.4979ZM144.723 18.3228C144.803 18.3759 144.903 18.4025 145.022 18.4025C145.155 18.4025 145.281 18.3759 145.4 18.3228C145.533 18.2697 145.653 18.1966 145.759 18.1037C145.879 18.0107 145.965 17.8912 146.018 17.7452C146.071 17.5991 146.071 17.3933 146.018 17.1277C145.965 16.8489 145.879 16.5567 145.759 16.2513C145.653 15.9326 145.533 15.614 145.4 15.2953C145.268 14.9766 145.155 14.6845 145.062 14.4189C144.982 14.2197 144.916 14.0338 144.863 13.8612C144.81 13.7151 144.756 13.5757 144.703 13.4429C144.664 13.2968 144.63 13.1973 144.604 13.1441C144.537 13.2504 144.418 13.423 144.245 13.662C144.086 13.901 143.907 14.1533 143.707 14.4189C143.522 14.6712 143.342 14.9102 143.17 15.1359C142.997 15.3484 142.878 15.4945 142.811 15.5741C142.705 15.6936 142.599 15.7667 142.492 15.7932C142.4 15.8065 142.32 15.7866 142.253 15.7335C142.187 15.6671 142.147 15.5808 142.134 15.4745C142.134 15.355 142.187 15.2156 142.293 15.0563C142.373 14.95 142.492 14.784 142.652 14.5583C142.811 14.3193 142.971 14.0803 143.13 13.8413C143.289 13.589 143.435 13.3699 143.568 13.184C143.701 12.9848 143.774 12.8653 143.787 12.8255C143.814 12.7192 143.774 12.5798 143.668 12.4072C143.575 12.2346 143.561 12.0354 143.628 11.8096C143.681 11.6237 143.8 11.4113 143.986 11.1723C144.172 10.92 144.391 10.6942 144.644 10.4951C144.896 10.2959 145.155 10.1498 145.42 10.0569C145.686 9.95065 145.925 9.95065 146.137 10.0569C146.31 10.1631 146.45 10.2826 146.556 10.4154C146.662 10.5349 146.702 10.661 146.675 10.7938C146.649 10.8602 146.609 10.9465 146.556 11.0528C146.503 11.159 146.423 11.2918 146.317 11.4511C146.21 11.5972 146.058 11.7897 145.859 12.0287C145.898 12.3342 145.952 12.613 146.018 12.8653C146.098 13.1176 146.171 13.3367 146.237 13.5226C146.317 13.7483 146.403 13.9541 146.496 14.14C146.615 14.3791 146.742 14.6247 146.874 14.877C147.007 15.1293 147.127 15.3816 147.233 15.6339C147.339 15.8729 147.425 16.0986 147.492 16.3111C147.558 16.5235 147.578 16.7028 147.552 16.8489C147.512 17.0746 147.392 17.3468 147.193 17.6655C147.007 17.9842 146.768 18.2962 146.476 18.6016C146.197 18.8938 145.872 19.1461 145.5 19.3585C145.142 19.571 144.763 19.6772 144.365 19.6772C144.086 19.6772 143.814 19.5909 143.548 19.4183C143.296 19.2457 143.077 19.0465 142.891 18.8207C142.718 18.5817 142.585 18.3493 142.492 18.1236C142.413 17.8979 142.406 17.7253 142.473 17.6057C142.552 17.4464 142.625 17.3203 142.692 17.2273C142.758 17.1344 142.858 17.0281 142.99 16.9086C143.044 16.8688 143.11 16.8223 143.19 16.7692C143.256 16.7294 143.349 16.6895 143.468 16.6497C143.588 16.6099 143.727 16.5634 143.887 16.5103C144.02 16.9219 144.139 17.2472 144.245 17.4862C144.351 17.712 144.438 17.8912 144.504 18.024C144.584 18.1701 144.657 18.2697 144.723 18.3228ZM158.108 14.8571C157.71 15.4413 157.258 16.0123 156.754 16.57C156.249 17.1144 155.711 17.6057 155.14 18.0439C154.583 18.4689 154.005 18.8141 153.407 19.0797C152.823 19.3452 152.252 19.478 151.695 19.478C151.402 19.478 151.084 19.405 150.738 19.2589C150.407 19.1261 150.101 18.9137 149.822 18.6216C149.543 18.3294 149.318 17.951 149.145 17.4862C148.986 17.0215 148.939 16.4572 149.006 15.7932C149.059 15.2488 149.225 14.6778 149.504 14.0803C149.796 13.4695 150.148 12.9118 150.559 12.4072C150.984 11.9026 151.456 11.4843 151.973 11.1524C152.505 10.8204 153.036 10.6544 153.567 10.6544C154.071 10.6544 154.437 10.7806 154.662 11.0328C154.888 11.2851 154.988 11.5972 154.961 11.969C154.921 12.3806 154.802 12.7591 154.603 13.1043C154.417 13.4496 154.191 13.7616 153.925 14.0404C153.66 14.3193 153.374 14.5716 153.069 14.7973C152.777 15.0231 152.498 15.2289 152.232 15.4148C151.94 15.614 151.661 15.8065 151.396 15.9924C151.13 16.165 150.898 16.3244 150.699 16.4704C150.712 16.8024 150.772 17.0812 150.878 17.307C150.984 17.5327 151.117 17.7186 151.276 17.8647C151.436 17.9975 151.615 18.0971 151.814 18.1634C152.027 18.2166 152.239 18.2431 152.451 18.2431C152.903 18.2431 153.374 18.1037 153.866 17.8248C154.357 17.5327 154.835 17.1875 155.3 16.7891C155.778 16.3775 156.216 15.9526 156.614 15.5144C157.026 15.0762 157.365 14.6977 157.63 14.3791C157.723 14.2728 157.816 14.2131 157.909 14.1998C158.015 14.1732 158.095 14.1865 158.148 14.2396C158.214 14.2795 158.248 14.3591 158.248 14.4786C158.248 14.5849 158.201 14.711 158.108 14.8571ZM153.009 11.7897C152.85 11.7897 152.657 11.8694 152.432 12.0287C152.219 12.1881 152.007 12.4205 151.794 12.7259C151.582 13.018 151.382 13.3832 151.197 13.8214C151.011 14.2463 150.871 14.7376 150.778 15.2953C150.938 15.1758 151.11 15.0563 151.296 14.9368C151.482 14.804 151.668 14.6645 151.854 14.5185C152.425 14.0803 152.823 13.6952 153.049 13.3632C153.275 13.0313 153.401 12.7458 153.427 12.5068C153.454 12.2545 153.427 12.0752 153.348 11.969C153.268 11.8495 153.155 11.7897 153.009 11.7897ZM159.482 18.3228C159.562 18.3759 159.662 18.4025 159.781 18.4025C159.914 18.4025 160.04 18.3759 160.16 18.3228C160.292 18.2697 160.412 18.1966 160.518 18.1037C160.638 18.0107 160.724 17.8912 160.777 17.7452C160.83 17.5991 160.83 17.3933 160.777 17.1277C160.724 16.8489 160.638 16.5567 160.518 16.2513C160.412 15.9326 160.292 15.614 160.16 15.2953C160.027 14.9766 159.914 14.6845 159.821 14.4189C159.741 14.2197 159.675 14.0338 159.622 13.8612C159.569 13.7151 159.516 13.5757 159.463 13.4429C159.423 13.2968 159.389 13.1973 159.363 13.1441C159.297 13.2504 159.177 13.423 159.004 13.662C158.845 13.901 158.666 14.1533 158.467 14.4189C158.281 14.6712 158.101 14.9102 157.929 15.1359C157.756 15.3484 157.637 15.4945 157.57 15.5741C157.464 15.6936 157.358 15.7667 157.252 15.7932C157.159 15.8065 157.079 15.7866 157.013 15.7335C156.946 15.6671 156.906 15.5808 156.893 15.4745C156.893 15.355 156.946 15.2156 157.052 15.0563C157.132 14.95 157.252 14.784 157.411 14.5583C157.57 14.3193 157.73 14.0803 157.889 13.8413C158.048 13.589 158.194 13.3699 158.327 13.184C158.46 12.9848 158.533 12.8653 158.546 12.8255C158.573 12.7192 158.533 12.5798 158.427 12.4072C158.334 12.2346 158.321 12.0354 158.387 11.8096C158.44 11.6237 158.56 11.4113 158.745 11.1723C158.931 10.92 159.15 10.6942 159.403 10.4951C159.655 10.2959 159.914 10.1498 160.18 10.0569C160.445 9.95065 160.684 9.95065 160.897 10.0569C161.069 10.1631 161.209 10.2826 161.315 10.4154C161.421 10.5349 161.461 10.661 161.434 10.7938C161.408 10.8602 161.368 10.9465 161.315 11.0528C161.262 11.159 161.182 11.2918 161.076 11.4511C160.97 11.5972 160.817 11.7897 160.618 12.0287C160.658 12.3342 160.711 12.613 160.777 12.8653C160.857 13.1176 160.93 13.3367 160.996 13.5226C161.076 13.7483 161.162 13.9541 161.255 14.14C161.375 14.3791 161.501 14.6247 161.634 14.877C161.766 15.1293 161.886 15.3816 161.992 15.6339C162.098 15.8729 162.185 16.0986 162.251 16.3111C162.317 16.5235 162.337 16.7028 162.311 16.8489C162.271 17.0746 162.151 17.3468 161.952 17.6655C161.766 17.9842 161.527 18.2962 161.235 18.6016C160.956 18.8938 160.631 19.1461 160.259 19.3585C159.901 19.571 159.522 19.6772 159.124 19.6772C158.845 19.6772 158.573 19.5909 158.307 19.4183C158.055 19.2457 157.836 19.0465 157.65 18.8207C157.477 18.5817 157.345 18.3493 157.252 18.1236C157.172 17.8979 157.165 17.7253 157.232 17.6057C157.311 17.4464 157.384 17.3203 157.451 17.2273C157.517 17.1344 157.617 17.0281 157.75 16.9086C157.803 16.8688 157.869 16.8223 157.949 16.7692C158.015 16.7294 158.108 16.6895 158.228 16.6497C158.347 16.6099 158.487 16.5634 158.646 16.5103C158.779 16.9219 158.898 17.2472 159.004 17.4862C159.111 17.712 159.197 17.8912 159.263 18.024C159.343 18.1701 159.416 18.2697 159.482 18.3228Z" fill="#C7CCD6"/>
</svg>
