<svg width="157" height="157" fill="none" xmlns="http://www.w3.org/2000/svg"><path opacity=".5" d="M88.5 75c0 14.001-11.781 25.5-26.5 25.5S35.5 89.001 35.5 75 47.281 49.5 62 49.5 88.5 60.999 88.5 75z" stroke="#7EB2FF" stroke-width="5"/><path opacity=".5" d="M126.5 75c0 14.001-11.781 25.5-26.5 25.5S73.5 89.001 73.5 75 85.281 49.5 100 49.5s26.5 11.499 26.5 25.5z" stroke="#7EB2FF" stroke-width="5"/><path d="M32.078 44.719c-1.562 0-2.984-.375-4.266-1.125-1.25-.75-2.328-1.782-3.234-3.094-.875-1.313-1.547-2.844-2.015-4.594-.438-1.781-.625-3.672-.563-5.672.063-1.875.297-3.906.703-6.093a46.78 46.78 0 011.828-6.563 44.828 44.828 0 012.813-6.375c1.125-2.062 2.406-3.875 3.843-5.437 1.438-1.563 3.032-2.813 4.782-3.75 1.75-.97 3.672-1.454 5.765-1.454 1.282 0 2.36.266 3.235.797a5.82 5.82 0 012.156 2.016 8.011 8.011 0 011.172 2.86c.219 1.062.312 2.14.281 3.234a15.805 15.805 0 01-.469 3 9.727 9.727 0 01-.984 2.625c-.406.75-.922 1.36-1.547 1.828-.594.437-1.281.656-2.062.656a2.35 2.35 0 01-1.078-.375c-.313-.187-.641-.469-.985-.844-.312-.375-.61-.922-.89-1.64.843-.344 1.5-.938 1.968-1.781.5-.876.875-1.782 1.125-2.72.282-1.062.469-2.25.563-3.562.062-1.281-.203-2.218-.797-2.812-.594-.594-1.266-.89-2.016-.89-1.468 0-3.015.765-4.64 2.296-1.625 1.531-3.141 3.61-4.547 6.234-1.375 2.594-2.547 5.625-3.516 9.094-.937 3.469-1.484 7.14-1.64 11.016-.063 1.75.046 3.234.328 4.453.312 1.219.734 2.219 1.265 3 .563.781 1.188 1.344 1.875 1.687.688.344 1.375.516 2.063.516a7.012 7.012 0 003.093-.703 11.599 11.599 0 002.626-1.734c.812-.688 1.5-1.407 2.062-2.157.594-.718 1.047-1.36 1.36-1.922.218-.406.453-.656.703-.75.25-.093.468-.062.656.094.187.125.312.344.375.656.062.282 0 .625-.188 1.032a22.012 22.012 0 01-1.968 3.187 16.05 16.05 0 01-2.579 2.86 12.069 12.069 0 01-3.093 2.109 8.243 8.243 0 01-3.563.797zm30.14-16.172a16.301 16.301 0 01-1.265 3.328 10.622 10.622 0 01-1.922 2.672 7.592 7.592 0 01-2.484 1.734c-.906.438-1.906.657-3 .657-1.281 0-2.297-.282-3.047-.844a5.153 5.153 0 01-1.64-2.016 8.155 8.155 0 01-.61-2.672 28.304 28.304 0 01-.14-2.718c0-.594.078-1.25.234-1.97.125-.718.312-1.452.562-2.202.25-.75.563-1.5.938-2.25a11.99 11.99 0 011.406-2.063c.188-.531.469-1 .844-1.406.406-.406.86-.735 1.36-.985a6.41 6.41 0 011.687-.609 6.804 6.804 0 011.734-.234c.094 0 .172.015.234.047l.282.093c.406.032.906.188 1.5.47.625.28 1.218.702 1.78 1.265.595.562 1.095 1.281 1.5 2.156.407.844.61 1.875.61 3.094 0 .25-.015.562-.047.937-.03.344-.062.64-.093.89a23.293 23.293 0 002.25-1.03 38.326 38.326 0 002.25-1.266c.75-.469 1.437-.938 2.062-1.406.625-.469 1.125-.89 1.5-1.266.313-.281.578-.437.797-.469.219-.03.375.032.469.188.094.156.11.375.047.656s-.235.594-.516.938c-.156.187-.563.562-1.219 1.125a32.891 32.891 0 01-2.25 1.828 35.003 35.003 0 01-2.86 1.922c-1.03.625-2.015 1.093-2.952 1.406zm-7.921-7.125c-.094.281-.14.578-.14.89 0 .5.03 1.032.093 1.594.063.532.219 1.016.469 1.453.25.438.64.813 1.172 1.125.562.282 1.328.422 2.297.422h.468l.469-.093c.094-.407.172-.766.234-1.079.094-.343.141-.64.141-.89a8.935 8.935 0 000-1.828 6.696 6.696 0 00-.375-1.688c-.156-.531-.375-.953-.656-1.265-.25-.344-.563-.516-.938-.516-.593 0-1.172.172-1.734.515-.531.313-1.031.766-1.5 1.36zm-3 8.25c0 .562.031 1.125.094 1.687a5.22 5.22 0 00.375 1.453c.187.407.437.75.75 1.032.312.25.718.375 1.218.375.563 0 1.078-.125 1.547-.375a5.72 5.72 0 001.266-1.032 7.91 7.91 0 00.984-1.453c.313-.562.578-1.14.797-1.734l-.656.094h-.656c-1.188 0-2.22-.344-3.094-1.032-.844-.718-1.5-1.625-1.969-2.718a24.462 24.462 0 00-.469 1.922 9.093 9.093 0 00-.187 1.78zm21.75 7.078c-1.188 0-2.156-.188-2.906-.563-.75-.374-1.344-.828-1.782-1.359a5.949 5.949 0 01-.89-1.781 7.758 7.758 0 01-.235-1.781c0-.938.079-1.922.235-2.953.156-1.063.344-2.032.562-2.907.219-.906.406-1.672.563-2.297.187-.625.312-1.015.375-1.172.281-.906.64-1.687 1.078-2.343a3.503 3.503 0 011.922-1.407c.312-.062.64-.125.984-.187.281-.031.563-.047.844-.047.312 0 .594.047.844.14a155.552 155.552 0 00-2.016 5.391A83.242 83.242 0 0071.547 27c-.281 1.031-.453 1.86-.516 2.484-.156 1.407-.031 2.47.375 3.188.406.719 1.235 1.078 2.485 1.078.812 0 1.593-.297 2.343-.89.75-.626 1.438-1.422 2.063-2.391a8.374 8.374 0 01-.14-1.547c0-1 .077-1.969.234-2.906.187-.97.39-1.86.609-2.672.25-.844.5-1.594.75-2.25.281-.657.516-1.172.703-1.547.344-.75.656-1.203.938-1.36.28-.187.734-.296 1.359-.328.25-.03.453-.03.61 0 .187 0 .343.016.468.047.375.094.563.282.563.563 0 .5-.032 1.25-.094 2.25-.063 1-.25 2.031-.563 3.093a26.015 26.015 0 01-.656 2.25c-.187.594-.375 1.11-.562 1.547-.188.407-.375.75-.563 1.032-.187.25-.36.484-.516.703.063.937.141 1.687.235 2.25.094.562.203 1 .328 1.312.156.282.328.485.516.61.218.093.453.14.703.14.437 0 .953-.203 1.547-.61a16.217 16.217 0 001.828-1.593 31.485 31.485 0 001.922-2.11 69.884 69.884 0 001.78-2.202c.532-.688.985-1.282 1.36-1.782.375-.53.61-.859.703-.984.22-.281.422-.453.61-.516.219-.062.39-.03.515.094.125.094.188.266.188.516.031.218-.031.468-.188.75-.625 1.187-1.406 2.453-2.343 3.797a30.799 30.799 0 01-2.954 3.656c-1.03 1.125-2.078 2.062-3.14 2.812-1.063.75-2.063 1.125-3 1.125-.844 0-1.516-.28-2.016-.843-.469-.594-.875-1.438-1.219-2.532-.718 1.125-1.562 2-2.53 2.625-.97.594-2.048.891-3.235.891zm13.312 19.266a2.583 2.583 0 01-.656-.422 3.605 3.605 0 01-.562-.61 2.704 2.704 0 01-.47-.843c.876-3.344 1.626-6.25 2.25-8.72.595-2.468 1.11-4.53 1.548-6.187.469-1.937.875-3.562 1.219-4.875l.937-3.75c.25-1.093.516-2.265.797-3.515.312-1.25.594-2.422.844-3.516.312-1.219.5-2.187.562-2.906a2.325 2.325 0 00-.703-1.922c.375-.313.75-.547 1.125-.703a4.957 4.957 0 011.078-.375 2.895 2.895 0 011.031-.094c.844.063 1.36.328 1.547.797.219.469.25 1.219.094 2.25a9.04 9.04 0 01-.094.422v.328c.438-.5.922-.984 1.453-1.453.532-.469 1.063-.89 1.594-1.266a8.804 8.804 0 011.688-.89c.593-.25 1.156-.375 1.687-.375.719 0 1.297.187 1.734.562.469.344.829.813 1.079 1.406.25.594.406 1.266.468 2.016.063.719.079 1.438.047 2.156-.031.782-.172 1.61-.422 2.485a16.02 16.02 0 01-.937 2.672 24.293 24.293 0 01-1.406 2.671 24.008 24.008 0 01-1.688 2.438c.125.031.203.062.235.094.031 0 .046.015.046.047l.047.046h.328c.719 0 1.453-.187 2.203-.562.75-.375 1.485-.844 2.204-1.406a23.919 23.919 0 002.062-1.922 33.157 33.157 0 001.828-1.969 34.079 34.079 0 001.406-1.734c.376-.532.657-.907.844-1.125.25-.313.485-.516.703-.61.219-.125.391-.14.516-.047.125.094.187.282.187.563 0 .25-.093.578-.281.984-.125.282-.39.735-.797 1.36a35.467 35.467 0 01-1.5 2.109 32.902 32.902 0 01-2.062 2.438c-.75.843-1.547 1.609-2.391 2.296a13.325 13.325 0 01-2.625 1.688c-.875.469-1.734.703-2.578.703-.406 0-.734-.016-.984-.047a2.012 2.012 0 01-.656-.187 3.226 3.226 0 01-.469-.235 23.91 23.91 0 01-.563-.234 6.476 6.476 0 01-1.734.984c-.594.25-1.172.375-1.734.375-.532 0-1-.093-1.407-.281a2.325 2.325 0 01-.937-.703 3.72 3.72 0 01-.61-.938 8.887 8.887 0 01-.375-1.078 4.512 4.512 0 01-.093.328c0 .094-.016.22-.047.375-.375 1.5-.766 3.235-1.172 5.203-.344 1.688-.766 3.735-1.266 6.141a428.144 428.144 0 00-1.5 8.297c-.187.844-.515 1.328-.984 1.453-.5.125-1.063.063-1.688-.187zm8.579-29.063a63.957 63.957 0 00-.516 1.875l-.563 2.485c.25-.188.532-.329.844-.422a3.25 3.25 0 01.938-.141c.343 0 .78.188 1.312.563a29.13 29.13 0 001.922 1.125 36.04 36.04 0 001.453-1.876c.531-.718 1-1.453 1.406-2.203.438-.75.797-1.515 1.078-2.297.313-.78.485-1.53.516-2.25.063-.937-.047-1.671-.328-2.203-.281-.53-.75-.797-1.406-.797-.969 0-2.031.579-3.188 1.735-1.125 1.125-2.281 2.594-3.469 4.406zm15.75 8.297a2950.567 2950.567 0 003.281-13.922c.843-3.5 1.484-6.172 1.922-8.015.5-2.188.843-3.704 1.031-4.547.094-.594.172-1.172.234-1.735.063-.5.094-1.015.094-1.547a6.93 6.93 0 00-.141-1.453 3.72 3.72 0 01.797-.375c.313-.094.61-.172.891-.234a12.23 12.23 0 011.031-.235c.344-.062.656-.093.938-.093.25 0 .484.031.703.094.219.03.359.124.422.28.187.157.265.47.234.938 0 .469-.031.953-.094 1.453-.125.594-.265 1.235-.422 1.922-.375 1.344-.89 3.282-1.547 5.813l-2.296 8.812a7866.24 7866.24 0 01-3.563 14.063 1.28 1.28 0 01-.562.328 2.23 2.23 0 01-.61.094 5.69 5.69 0 01-.703-.047 2.97 2.97 0 01-.656-.282 2.814 2.814 0 01-.563-.515c-.187-.188-.328-.453-.421-.797zm32.437-9c-.937 1.375-2 2.719-3.187 4.031a30.54 30.54 0 01-3.797 3.469 20.398 20.398 0 01-4.079 2.438c-1.374.624-2.718.937-4.031.937-.687 0-1.437-.172-2.25-.516-.781-.312-1.5-.812-2.156-1.5-.656-.687-1.187-1.578-1.594-2.672-.375-1.093-.484-2.421-.328-3.984.125-1.281.516-2.625 1.172-4.031a19.539 19.539 0 012.484-3.938c1-1.187 2.11-2.172 3.329-2.953 1.25-.781 2.5-1.172 3.75-1.172 1.187 0 2.046.297 2.578.891.531.594.765 1.328.703 2.203a6.543 6.543 0 01-.844 2.672 10.15 10.15 0 01-1.594 2.203 15.56 15.56 0 01-2.015 1.781 52.505 52.505 0 01-1.969 1.453c-.688.47-1.344.922-1.969 1.36-.625.406-1.172.781-1.64 1.125.031.781.171 1.437.421 1.969.25.53.563.968.938 1.312.375.313.797.547 1.265.703.5.125 1 .188 1.5.188 1.063 0 2.172-.328 3.329-.985a24.214 24.214 0 003.375-2.437 35.251 35.251 0 003.093-3A61.809 61.809 0 00142 25.125c.219-.25.438-.39.656-.422.25-.062.438-.031.563.094.156.094.234.281.234.562 0 .25-.109.547-.328.891zm-12-7.219c-.375 0-.828.188-1.359.563-.5.375-1 .922-1.5 1.64-.5.688-.969 1.547-1.407 2.578-.437 1-.765 2.157-.984 3.47.375-.282.781-.563 1.219-.845.437-.312.875-.64 1.312-.984 1.344-1.031 2.282-1.937 2.813-2.719.531-.78.828-1.453.89-2.015.063-.594 0-1.016-.187-1.266a.903.903 0 00-.797-.422zM11.14 144.719c-1.468 0-2.843-.235-4.124-.703a10.784 10.784 0 01-3.329-1.969 9.712 9.712 0 01-2.25-3c-.562-1.125-.859-2.359-.89-3.703-.031-1.75.25-3.313.844-4.688A12.796 12.796 0 013.64 127a14.162 14.162 0 013.28-2.672 20.77 20.77 0 013.75-1.828 11.668 11.668 0 01-1.968-1.359 10.827 10.827 0 01-1.594-1.782 9.477 9.477 0 01-1.125-2.062 5.882 5.882 0 01-.421-2.156c-.063-2.188.375-4.172 1.312-5.953a15.466 15.466 0 013.703-4.547 16.562 16.562 0 015.016-2.953c1.875-.688 3.703-1.032 5.484-1.032 1.188 0 2.203.203 3.047.61.844.375 1.531.859 2.063 1.453a5.394 5.394 0 011.171 1.875c.282.656.438 1.265.47 1.828a9.997 9.997 0 01-.423 3.14 13.375 13.375 0 01-1.125 2.907c-.437.843-.937 1.547-1.5 2.109-.562.531-1.11.797-1.64.797-.407 0-.828-.063-1.266-.187a8.51 8.51 0 01-1.313-.469c-.5-.219-1-.547-1.5-.985a6.886 6.886 0 002.157-1.312 8.43 8.43 0 001.547-1.969c.437-.719.75-1.453.937-2.203a8.187 8.187 0 00.328-2.203c-.031-1-.265-1.766-.703-2.297-.437-.562-1.14-.844-2.11-.844-1.312 0-2.624.328-3.937.985-1.312.625-2.484 1.515-3.515 2.671-1 1.126-1.797 2.485-2.391 4.079-.563 1.562-.75 3.265-.563 5.109.157 1.406.579 2.594 1.266 3.562.719.969 1.39 1.719 2.016 2.25.5-.062.969-.109 1.406-.14a8.583 8.583 0 011.219-.094c.531 0 1.062.094 1.593.281.532.188.797.453.797.797 0 .25-.062.532-.187.844a2.377 2.377 0 01-.516.891c-.25.281-.547.515-.89.703-.344.187-.75.281-1.22.281-.374 0-.827-.094-1.358-.281a11.893 11.893 0 01-1.594-.703 9.022 9.022 0 00-3.235 1.359 10.08 10.08 0 00-2.484 2.25 11.013 11.013 0 00-1.547 2.859c-.375 1.032-.547 2.032-.516 3 .032.907.172 1.813.422 2.719.25.938.641 1.766 1.172 2.484a5.894 5.894 0 002.063 1.735c.875.469 1.922.703 3.14.703.907 0 1.766-.203 2.579-.609a10.14 10.14 0 002.343-1.453 14.653 14.653 0 001.969-1.969 21.177 21.177 0 001.547-2.11c.437-.687.797-1.312 1.078-1.875.313-.562.531-.968.656-1.218a.993.993 0 01.375-.422c.188-.094.36-.11.516-.047a.56.56 0 01.422.328c.093.187.093.469 0 .844-.25 1.125-.719 2.375-1.407 3.75a17.163 17.163 0 01-2.671 3.937 13.925 13.925 0 01-3.797 3.047c-1.438.844-3.047 1.266-4.828 1.266zm36.47-14.907c-1.313 1.657-2.485 2.969-3.516 3.938-1 .938-1.89 1.641-2.672 2.109-.781.469-1.469.766-2.063.891a7.828 7.828 0 01-1.593.188c-.594 0-1.094-.141-1.5-.422a4.046 4.046 0 01-1.032-1.032 5.428 5.428 0 01-.656-1.265 24.037 24.037 0 01-.375-1.125c-.125-.344-.266-.735-.422-1.172a188.62 188.62 0 00-.422-1.453 150.2 150.2 0 00-1.968 2.109c-.594.625-1.266 1.344-2.016 2.156l-2.297 2.391a1.506 1.506 0 01-.75 0 6.22 6.22 0 01-.562-.187 1.792 1.792 0 01-.47-.329 2.986 2.986 0 01-.28-.328 2.99 2.99 0 01-.188-.328.643.643 0 01-.094-.469c.907-1.031 1.797-2.046 2.672-3.046a943.323 943.323 0 012.438-2.766c.812-.938 1.593-1.844 2.343-2.719a113.327 113.327 0 01-1.171-3.328 123.462 123.462 0 00-.75-2.203 37.37 37.37 0 00-.844-2.25c-.219-.594-.61-1.016-1.172-1.266a5.604 5.604 0 011.078-.797c.375-.218.703-.375.985-.468.343-.125.64-.188.89-.188.719 0 1.344.641 1.875 1.922.563 1.25 1.125 2.984 1.688 5.203 0 .094.03.203.093.328.657-.781 1.282-1.515 1.875-2.203a50.236 50.236 0 001.594-1.828 205.6 205.6 0 011.125-1.266c.281-.312.453-.5.516-.562.625-.719 1.187-1.125 1.687-1.219.5-.094.953.016 1.36.328.187.125.39.25.609.375.406.25.89.485 1.453.703-.531.5-1.125 1.078-1.781 1.735a93.864 93.864 0 00-1.781 1.828l-1.97 2.062c-.468.469-1.03 1.047-1.687 1.735-.625.687-1.297 1.437-2.015 2.25.218.781.453 1.515.703 2.203.25.687.5 1.297.75 1.828.281.531.562.953.844 1.266.28.312.578.468.89.468.5 0 1.063-.125 1.688-.375a12.956 12.956 0 001.968-1.125 18.843 18.843 0 002.063-1.64 41.184 41.184 0 002.11-1.969c.25-.25.484-.391.703-.422.25-.031.421.016.515.141.094.125.11.328.047.609-.031.281-.203.61-.516.984zm-4.688 26.204a2.603 2.603 0 01-.656-.422 3.6 3.6 0 01-.563-.61 2.7 2.7 0 01-.469-.843c.875-3.344 1.625-6.25 2.25-8.719.594-2.469 1.11-4.531 1.547-6.188.469-1.937.875-3.562 1.219-4.875l.938-3.75c.25-1.093.515-2.265.796-3.515.313-1.25.594-2.422.844-3.516.313-1.219.5-2.187.563-2.906a2.325 2.325 0 00-.703-1.922 4.45 4.45 0 011.124-.703 4.906 4.906 0 011.079-.375 2.895 2.895 0 011.03-.094c.845.063 1.36.328 1.548.797.218.469.25 1.219.093 2.25a9.382 9.382 0 01-.093.422v.328c.437-.5.922-.984 1.453-1.453a18.766 18.766 0 011.594-1.266 8.755 8.755 0 011.687-.89c.594-.25 1.156-.375 1.688-.375.718 0 1.297.187 1.734.562.469.344.828.813 1.078 1.406.25.594.406 1.266.469 2.016.062.719.078 1.437.047 2.156-.032.781-.172 1.61-.422 2.485a16.1 16.1 0 01-.938 2.672 24.311 24.311 0 01-1.406 2.671 23.916 23.916 0 01-1.687 2.438c.125.031.203.062.234.094.031 0 .047.015.047.047l.047.046h.328c.719 0 1.453-.187 2.203-.562.75-.375 1.484-.844 2.203-1.406a23.95 23.95 0 002.063-1.922 33.562 33.562 0 001.828-1.969 34.911 34.911 0 001.406-1.734c.375-.532.656-.907.844-1.125.25-.313.484-.516.703-.61.219-.125.39-.14.516-.047.124.094.187.282.187.563 0 .25-.094.578-.281.984-.125.282-.39.735-.797 1.36a35.683 35.683 0 01-1.5 2.109 32.957 32.957 0 01-2.063 2.437 20.6 20.6 0 01-2.39 2.297 13.345 13.345 0 01-2.625 1.688c-.875.469-1.735.703-2.578.703-.407 0-.735-.016-.985-.047a2.032 2.032 0 01-.656-.187 3.317 3.317 0 01-.469-.235 22.18 22.18 0 01-.562-.234 6.5 6.5 0 01-1.735.984c-.593.25-1.172.375-1.734.375-.531 0-1-.094-1.406-.281a2.329 2.329 0 01-.938-.703 3.712 3.712 0 01-.61-.938 8.873 8.873 0 01-.374-1.078 4.39 4.39 0 01-.094.328c0 .094-.016.219-.047.375-.375 1.5-.765 3.235-1.172 5.203a1613.74 1613.74 0 01-1.265 6.141 427.056 427.056 0 00-1.5 8.297c-.188.844-.516 1.328-.985 1.453-.5.125-1.062.063-1.687-.187zm8.578-29.063a63.751 63.751 0 00-.516 1.875l-.562 2.484c.25-.187.531-.328.844-.421a3.24 3.24 0 01.937-.141c.344 0 .781.188 1.313.562.53.344 1.172.719 1.922 1.126.468-.563.953-1.188 1.453-1.876.53-.718 1-1.453 1.406-2.203.437-.75.797-1.515 1.078-2.297.313-.781.484-1.531.516-2.25.062-.937-.047-1.671-.328-2.203-.282-.531-.75-.797-1.407-.797-.968 0-2.031.579-3.187 1.735-1.125 1.125-2.282 2.594-3.469 4.406zm37.688-.703c-.938 1.375-2 2.719-3.188 4.031a30.456 30.456 0 01-3.797 3.469 20.45 20.45 0 01-4.078 2.438c-1.375.624-2.719.937-4.031.937-.688 0-1.438-.172-2.25-.516-.781-.312-1.5-.812-2.156-1.5-.657-.687-1.188-1.578-1.594-2.671-.375-1.094-.485-2.422-.328-3.985.125-1.281.515-2.625 1.171-4.031a19.53 19.53 0 012.485-3.938c1-1.187 2.11-2.172 3.328-2.953 1.25-.781 2.5-1.172 3.75-1.172 1.188 0 2.047.297 2.578.891.531.594.766 1.328.703 2.203a6.544 6.544 0 01-.844 2.672 10.148 10.148 0 01-1.593 2.203 15.51 15.51 0 01-2.016 1.781 50.705 50.705 0 01-1.969 1.453c-.687.469-1.343.922-1.968 1.36-.625.406-1.172.781-1.641 1.125.031.781.172 1.437.422 1.969.25.531.562.968.937 1.312.375.313.797.547 1.266.703.5.125 1 .188 1.5.188 1.063 0 2.172-.328 3.328-.985a24.174 24.174 0 003.375-2.437 35.391 35.391 0 003.094-3 61.784 61.784 0 002.39-2.672c.22-.25.438-.391.657-.422.25-.062.437-.031.562.094.156.094.235.281.235.562 0 .25-.11.547-.329.891zm-12-7.219c-.376 0-.829.188-1.36.563-.5.375-1 .922-1.5 1.64-.5.688-.969 1.547-1.406 2.578-.438 1-.766 2.157-.984 3.469.374-.281.78-.562 1.218-.843.438-.313.875-.641 1.313-.985 1.344-1.031 2.281-1.937 2.812-2.719.531-.781.828-1.453.89-2.015.063-.594 0-1.016-.187-1.266a.903.903 0 00-.796-.422zm22.546 18.141c-.718 0-1.343-.141-1.875-.422-.5-.25-.906-.594-1.218-1.031a3.551 3.551 0 01-.61-1.5 4.808 4.808 0 01.094-1.875c.094-.438.25-1.016.469-1.735.219-.75.437-1.547.656-2.39.25-.875.469-1.735.656-2.578.219-.875.36-1.657.422-2.344.063-.719.031-1.297-.094-1.735-.125-.468-.39-.703-.796-.703-.5 0-1.016.172-1.547.516-.532.313-1.079.75-1.641 1.313a22.679 22.679 0 00-1.64 1.968 70.707 70.707 0 00-1.594 2.25c-.282 1.063-.516 2-.704 2.813l-.515 2.156c-.125.625-.25 1.187-.375 1.687-.125.469-.234.922-.328 1.36-.094.312-.375.625-.844.937a8.151 8.151 0 01-1.5.703c-.531.188-.984.282-1.36.282-.406 0-.578-.141-.515-.422.031-.188.14-.61.328-1.266.156-.656.36-1.422.61-2.297.218-.906.453-1.859.703-2.859.25-1 .484-1.953.703-2.859a869.7 869.7 0 00.515-2.391c.157-.75.344-1.625.563-2.625.25-1 .531-2.094.844-3.281.218-.188.437-.328.656-.422.25-.125.5-.219.75-.281.25-.094.516-.157.797-.188.25 0 .5.016.75.047.219.031.437.094.656.188.25.062.469.171.656.328a9.885 9.885 0 00-.328.937c-.125.375-.25.781-.375 1.219-.125.5-.281 1.016-.469 1.547.407-.563.86-1.125 1.36-1.688a13.438 13.438 0 011.687-1.593 8.903 8.903 0 011.969-1.126 5.055 5.055 0 012.11-.468c.593 0 1.124.172 1.593.515.469.344.828.829 1.078 1.453.281.594.438 1.313.469 2.157.062.843-.047 1.765-.328 2.765l-.516 2.063a69.697 69.697 0 01-.609 2.344c-.219.875-.5 1.843-.844 2.906-.187.687-.266 1.281-.234 1.781.062.5.375.75.937.75.563 0 1.266-.344 2.11-1.031a21.347 21.347 0 002.625-2.485 53.655 53.655 0 002.484-2.953c.781-1.031 1.375-1.859 1.781-2.484.282-.406.547-.672.797-.797s.438-.14.563-.047c.156.094.234.313.234.657 0 .312-.125.718-.375 1.218-.219.438-.563 1.016-1.031 1.735a26.15 26.15 0 01-1.594 2.297 64.57 64.57 0 01-2.016 2.484 25.41 25.41 0 01-2.25 2.25 13.023 13.023 0 01-2.343 1.594c-.75.437-1.469.656-2.157.656zm14.86-2.766c.187.125.422.188.703.188.312 0 .609-.063.891-.188.312-.125.593-.297.843-.515.281-.219.485-.5.61-.844s.125-.828 0-1.453a11.72 11.72 0 00-.61-2.063c-.25-.75-.531-1.5-.843-2.25a37.32 37.32 0 01-.797-2.062 16.966 16.966 0 01-.469-1.313c-.125-.344-.25-.672-.375-.984-.094-.344-.172-.578-.235-.703-.156.25-.437.656-.843 1.219a39.63 39.63 0 01-1.266 1.781c-.437.593-.859 1.156-1.265 1.687-.407.5-.688.844-.844 1.032-.25.281-.5.453-.75.515a.702.702 0 01-.563-.141 1.008 1.008 0 01-.281-.609c0-.281.125-.609.375-.984.187-.25.469-.641.844-1.172l1.125-1.688c.375-.593.718-1.109 1.031-1.547.313-.468.484-.75.516-.843.062-.25-.032-.578-.282-.985-.218-.406-.25-.875-.093-1.406.125-.437.406-.937.843-1.5a8.302 8.302 0 011.547-1.594 6.362 6.362 0 011.828-1.031c.625-.25 1.188-.25 1.688 0 .406.25.734.531.984.844.25.281.344.578.282.891a8.82 8.82 0 01-.282.609c-.125.25-.312.562-.562.937-.25.344-.61.797-1.078 1.36.093.718.218 1.375.375 1.968.187.594.359 1.11.515 1.547.188.532.391 1.016.61 1.453.281.563.578 1.141.89 1.735.313.594.594 1.187.844 1.781.25.563.453 1.094.609 1.594.157.5.203.922.141 1.266-.094.531-.375 1.171-.844 1.921-.437.75-1 1.485-1.687 2.203a10.035 10.035 0 01-2.297 1.782 5.16 5.16 0 01-2.672.75c-.656 0-1.297-.203-1.922-.61a7.414 7.414 0 01-1.547-1.406 8.052 8.052 0 01-.937-1.64c-.188-.532-.203-.938-.047-1.219.187-.375.359-.672.515-.891a4.9 4.9 0 01.704-.75c.125-.094.281-.203.468-.328a3.36 3.36 0 01.657-.281l.984-.328c.313.968.594 1.734.844 2.297.25.531.453.953.609 1.265.188.344.36.578.516.703zm31.5-8.156c-.938 1.375-2 2.719-3.188 4.031a30.408 30.408 0 01-3.797 3.469 20.414 20.414 0 01-4.078 2.438c-1.375.624-2.719.937-4.031.937-.688 0-1.438-.172-2.25-.516-.781-.312-1.5-.812-2.156-1.5-.656-.687-1.188-1.578-1.594-2.671-.375-1.094-.484-2.422-.328-3.985.125-1.281.516-2.625 1.172-4.031a19.498 19.498 0 012.484-3.938c1-1.187 2.11-2.172 3.328-2.953 1.25-.781 2.5-1.172 3.75-1.172 1.188 0 2.047.297 2.578.891.532.594.766 1.328.704 2.203a6.56 6.56 0 01-.844 2.672 10.166 10.166 0 01-1.594 2.203 15.5 15.5 0 01-2.016 1.781 50.325 50.325 0 01-1.968 1.453c-.688.469-1.344.922-1.969 1.36-.625.406-1.172.781-1.641 1.125.032.781.172 1.437.422 1.969.25.531.563.968.938 1.312.375.313.796.547 1.265.703.5.125 1 .188 1.5.188 1.063 0 2.172-.328 3.328-.985a24.092 24.092 0 003.375-2.437 35.324 35.324 0 003.094-3 61.626 61.626 0 002.391-2.672c.219-.25.437-.391.656-.422.25-.062.437-.031.563.094.156.094.234.281.234.562 0 .25-.11.547-.328.891zm-12-7.219c-.375 0-.828.188-1.36.563-.5.375-1 .922-1.5 1.64-.5.688-.968 1.547-1.406 2.578-.437 1-.766 2.157-.984 3.469.375-.281.781-.562 1.218-.843.438-.313.876-.641 1.313-.985 1.344-1.031 2.281-1.937 2.813-2.719.531-.781.828-1.453.89-2.015.063-.594 0-1.016-.187-1.266a.904.904 0 00-.797-.422zm15.234 15.375c.188.125.422.188.703.188.313 0 .61-.063.891-.188.312-.125.594-.297.844-.515.281-.219.484-.5.609-.844s.125-.828 0-1.453a11.713 11.713 0 00-.609-2.063c-.25-.75-.532-1.5-.844-2.25a38.137 38.137 0 01-.797-2.062 17.396 17.396 0 01-.469-1.313c-.125-.344-.25-.672-.375-.984-.093-.344-.172-.578-.234-.703-.156.25-.438.656-.844 1.219a40.39 40.39 0 01-1.265 1.781c-.438.593-.86 1.156-1.266 1.687-.406.5-.688.844-.844 1.032-.25.281-.5.453-.75.515a.699.699 0 01-.562-.141 1.01 1.01 0 01-.282-.609c0-.281.125-.609.375-.984.188-.25.469-.641.844-1.172l1.125-1.688a34.21 34.21 0 011.031-1.547c.313-.468.485-.75.516-.843.063-.25-.031-.578-.281-.985-.219-.406-.25-.875-.094-1.406.125-.437.406-.937.844-1.5a8.272 8.272 0 011.547-1.594 6.348 6.348 0 011.828-1.031c.625-.25 1.187-.25 1.687 0 .406.25.735.531.985.844.25.281.343.578.281.891a8.731 8.731 0 01-.281.609c-.125.25-.313.562-.563.937-.25.344-.609.797-1.078 1.36.094.718.219 1.375.375 1.968.187.594.359 1.11.516 1.547.187.532.39 1.016.609 1.453.281.563.578 1.141.891 1.735.312.594.593 1.187.843 1.781.25.563.454 1.094.61 1.594.156.5.203.922.14 1.266-.093.531-.375 1.171-.843 1.921-.438.75-1 1.485-1.688 2.203a10.014 10.014 0 01-2.297 1.782 5.16 5.16 0 01-2.672.75c-.656 0-1.296-.203-1.922-.61a7.409 7.409 0 01-1.546-1.406 8.06 8.06 0 01-.938-1.64c-.187-.532-.203-.938-.047-1.219.188-.375.36-.672.516-.891.156-.219.391-.469.703-.75.125-.094.281-.203.469-.328.156-.094.375-.188.656-.281l.984-.328c.313.968.594 1.734.844 2.297.25.531.453.953.609 1.265.188.344.36.578.516.703z" fill="#3A3B3E"/></svg>